<?xml version="1.0" encoding="UTF-8"?><svg id="Layer_2" xmlns="http://www.w3.org/2000/svg" xmlns:xlink="http://www.w3.org/1999/xlink" viewBox="0 0 161.26 128.56"><defs><style>.cls-1{fill:url(#linear-gradient);}.cls-1,.cls-2,.cls-3,.cls-4,.cls-5,.cls-6,.cls-7,.cls-8,.cls-9,.cls-10,.cls-11,.cls-12,.cls-13,.cls-14,.cls-15,.cls-16,.cls-17,.cls-18,.cls-19{stroke-width:0px;}.cls-2{fill:url(#linear-gradient-4);}.cls-3{fill:url(#linear-gradient-2);}.cls-4{fill:url(#linear-gradient-3);}.cls-5{fill:url(#linear-gradient-5);}.cls-6{fill:url(#linear-gradient-6);}.cls-7{fill:#602045;}.cls-8{fill:#43c1c3;}.cls-9{fill:#09767c;}.cls-10{fill:#1c1f4c;}.cls-11{fill:#d1d1d4;}.cls-12{fill:#ad973f;}.cls-13{fill:#7f287e;}.cls-14{fill:#7e283b;}.cls-15{fill:#95313a;}.cls-16{fill:#e4b85c;}.cls-17{fill:#e5bd2b;}.cls-18{fill:#f1b01d;}.cls-19{fill:#fcfdfe;}</style><linearGradient id="linear-gradient" x1="121.21" y1="111.94" x2="70.17" y2="116.26" gradientUnits="userSpaceOnUse"><stop offset="0" stop-color="#292663"/><stop offset="1" stop-color="#602872"/></linearGradient><linearGradient id="linear-gradient-2" x1="23.17" y1="107.31" x2="85.37" y2="107.75" gradientUnits="userSpaceOnUse"><stop offset="0" stop-color="#f15848"/><stop offset=".7" stop-color="#da487d"/><stop offset="1" stop-color="#8c4a94"/></linearGradient><linearGradient id="linear-gradient-3" x1="33.65" y1="29.75" x2="107.38" y2="32.4" gradientUnits="userSpaceOnUse"><stop offset="0" stop-color="#6f297a"/><stop offset="1" stop-color="#26235b"/></linearGradient><linearGradient id="linear-gradient-4" x1="36.95" y1="57.99" x2="103.99" y2="59.72" gradientUnits="userSpaceOnUse"><stop offset="0" stop-color="#f6881f"/><stop offset=".64" stop-color="#cb5684"/><stop offset="1" stop-color="#4b449b"/></linearGradient><linearGradient id="linear-gradient-5" x1="129.38" y1="40.16" x2="91.34" y2="96.87" gradientUnits="userSpaceOnUse"><stop offset="0" stop-color="#d3de39"/><stop offset="1" stop-color="#eec024"/></linearGradient><linearGradient id="linear-gradient-6" x1="9.82" y1="57.19" x2="51.68" y2="96.34" gradientUnits="userSpaceOnUse"><stop offset="0" stop-color="#212155"/><stop offset=".27" stop-color="#36328c"/><stop offset=".44" stop-color="#515fab"/><stop offset=".61" stop-color="#5289c7"/><stop offset=".74" stop-color="#3eabe1"/><stop offset="1" stop-color="#2bbfe8"/></linearGradient></defs><g id="Layer_1-2"><path class="cls-10" d="M140.44,22.6c-.1.82-.2.58-.2.61l-3.66-1.63c.64-.4.77-.78.81-.81.86-.58,1.45-1.22,2.24-1.83,3.85-3,1.27-.02.81,3.66Z"/><path class="cls-9" d="M154.46,65.89c-2.29,2.38-4.96,4.57-7.32,6.91-2.28,2.26-4.64,4.45-6.91,6.71-9.56,9.51-19.1,19.04-28.56,28.66-3.1-1.23-6.13-2.67-9.25-3.86,6.51-5.98,46.52-47.54,49.49-49.39,3.09-1.93,7.46.54,7.62-4.27,4.54,6.3-.89,10.91-5.08,15.24Z"/><path class="cls-8" d="M155.07,47.39c2.01.43,3.3,1.63,4.47,3.25-.16,4.8-4.53,2.34-7.62,4.27-2.97,1.85-42.98,43.41-49.49,49.39-2.75-1.05-5.62-1.91-8.33-3.05,4.38-4.47,9.31-8.54,13.01-13.62,11.34-10.36,23.56-23.94,34.75-33.94,3.87-3.46,7.49-7.53,13.21-6.3Z"/><path class="cls-19" d="M137.39,20.77s-.17.41-.81.81c-3.13,1.95-6.18,1.7-9.55,6.71-.06.09-.56,1.31-1.02,2.03-.41.64-.38.77-.41.81-.56.9-.88,1.61-1.02,1.83-5.38,8.85-10.48,17.84-15.45,26.93.3,6.74-2.6,12.21-9.86,12.3-2.8,4.83-5.91,9.54-9.45,13.92v13.21c.14.37,3.62,1.66,4.27,1.93,2.72,1.14,5.58,2,8.33,3.05,3.12,1.19,6.15,2.63,9.25,3.86,9.46-9.61,19-19.14,28.56-28.66,1.67.74,1.24,3.56.41,4.98-.9,1.54-22.19,21.3-25.2,25.2,3.47,2.86,16.17,10.26,13.82,15.55-.03.06-.68.88-.81,1.02-.51.53-2.91,1.92-3.56,2.03-5.1.88-89.51-.67-103.45,0-13.19-4.06,2.7-14.81,7.82-18.39-7.53-9.58-21.12-17.44-19.1-31.4.32.43,2.44,2.12,2.64,2.44,1.5,2.33,1.6,7.25,4.67,11.38,1.45,1.95,3.42,3.5,5.08,5.28,3.48,3.74,7.01,7.41,10.67,10.98,1.86-1.21,4.24-1.73,4.47-1.83.13-.06,2.19-1.52,2.44-1.63,1.4-.59,2.93-1.03,4.37-1.63.95-.4,7.37-2.57,7.52-2.95l-.2-6.5c-7.32-7.85-31.87-41.24-36.58-45.63-3.69-3.43-7.98-4.27-10.77-6.1-.01,0,.03-.05-.2-.2,2.6-2.87,8.45-.26,11.08,1.83,3.79,3,12.64,16.02,17.07,20.32-.8-5.67,2.35-8.87,2.34-9.65-1.95-4.71-4.76-11.07-4.88-16.06-1.83-3.2-2.24-7.77.81-10.37-1.43-3.29.02-8.8,3.66-9.96.21-5.8,4.58-11.83,10.87-11.08C49.01,2.85,55.76-.14,61.48.85c3.4-1.37,7.24-.56,10.77,0,2.17-1.25,4.9-1.01,7.11,0,5.8-1.27,12.56,2.09,16.67,6.1,3.63-.43,7.5,2.53,7.82,6.2,7.56,3.84,5.78,10.7,6.1,11.79,8.59,4.89-4.14,28.47-3.46,31.3.03.11.55.49.71.71,3-5,16.82-30.66,18.19-32.42,2.62-3.36,7.99-5.65,11.99-3.76Z"/><path class="cls-1" d="M68.9,124.22l.2-7.42c8.52,2.94,18.89-6.41,18.9-14.74,13.61,5.27,30.19,9.81,39.23,22.05-19.44.18-38.89.11-58.33.1Z"/><path class="cls-11" d="M38.72,71.78c.07-.04,1.25.25,1.32.3.65.51,4.36,9.01-1.32-.3Z"/><path class="cls-3" d="M86.38,93.32c.12,1.74,1.63,7.59,1.63,8.74-.02,8.33-10.38,17.67-18.9,14.74l-.2,7.42c-16.8-.01-33.6.09-50.4-.1,7.53-11.56,23.69-16.57,36.08-21.44.03-3.97.31-8.02.1-11.99,11.49,13.7,18.04,14,31.71,2.64Z"/><path class="cls-10" d="M86.58,84.18c.29,2.66-.32,7.34-.2,9.15-13.67,11.35-20.21,11.05-31.71-2.64-.02-.33-.35-1.18-.2-2.44,7.17,4.77,14.47,4.62,22.25,1.42,1.27-.52,8.97-4.8,9.86-5.49Z"/><path class="cls-4" d="M99.99,56.13c-1.55.76-1.87,2.1-2.24,1.73.79-9.09-1.45-23.64-9.86-28.96-2.21-1.4-8.08-3.32-10.57-3.05-3.39.37-13.3,9.91-18.8,1.02-1.9-3.08.1-4.74-6.2-2.03-2.38,1.02-4.65,2.91-6.61,4.57,1.51,1.43-4.33,6.25-4.27,6.71.07.51,2.27.41,2.64.71-2.6,5.33-3.23,12.12-3.05,17.99.07,2.4,1.32,5.17-1.83,1.32-2.17-2.66-1.23-3.96-2.85-5.18-.03-3.91-2.09-3.59-1.63-6.5-2.94-3.11-1.51-6.78-1.63-7.32-.09-.45-4.47-3.97,1.02-7.72-1.79-3.25-1.35-8.43,3.05-8.94-.21-5.99,3.19-11.64,9.86-10.06,3.55-6.01,7.71-4.69,8.33-4.88.32-.1,1.62-2.96,6.1-1.02.88-.53,2.03-1.11,3.05-1.22,1.41-.16,5.68.65,7.72.81,2.5-1.22,5.56-1.17,7.93.41,2.2-1.3,5.1-.79,6.71,1.22,3.43-.23,5.71,1.92,7.72,4.47,3.25-1.23,6.99,1.37,6.2,4.98,5.54,1.52,7.1,6.29,5.89,11.58.16.51,5.07,1.72,2.44,5.49,2.19,3.75-.9,5.3-1.02,5.69-.2.68.2,3.18,0,3.86-.06.21-1.37,1.22-1.42,1.42-.32,1.18,1.09,1.88-1.02,3.86.25,2.92-1.5,5.14-2.03,7.93-.49,1.02-1.25-.07-3.66,1.12Z"/><path class="cls-10" d="M58.53,26.86c-6.88,1.79-11.17,3.26-14.43,9.96-.37-.3-2.57-.2-2.64-.71-.07-.46,5.78-5.27,4.27-6.71,1.96-1.66,4.23-3.55,6.61-4.57,6.3-2.71,4.3-1.05,6.2,2.03Z"/><path class="cls-2" d="M99.99,56.13c11.22-1.22,6.12,18.99-3.15,12.6-2.24,5.55-5.45,11.69-10.26,15.45-.89.69-8.58,4.96-9.86,5.49-7.79,3.2-15.08,3.35-22.25-1.42-6.34-4.22-9.72-11.39-11.38-18.6l-.51-.3c-6.58,5.07-11.48-11.2-3.35-13.21,3.15,3.85,1.9,1.08,1.83-1.32-.18-5.87.45-12.65,3.05-17.99,3.26-6.69,7.55-8.17,14.43-9.96,5.5,8.89,15.41-.65,18.8-1.02,2.49-.27,8.36,1.65,10.57,3.05,8.41,5.33,10.65,19.87,9.86,28.96.37.37.69-.97,2.24-1.73Z"/><path class="cls-10" d="M78.55,45.56c5.27.57,10.78-.08,8.13,3.86-2.15-.96-13.17-.04-8.13-3.86Z"/><path class="cls-10" d="M54.16,45.56c4.89-.22,3.41,2.42,3.05,2.64-.28.17-6.17,1.01-6.5,1.02-2.98.08-2.18-2.35-1.83-2.64.21-.17,4.76-.99,5.28-1.02Z"/><path class="cls-10" d="M77.54,54.71c1.87-.12,2.36,2.85.61,3.25-2.56.59-2.52-3.13-.61-3.25Z"/><path class="cls-10" d="M56.4,54.91c2.23-.61,2.86,2.62,1.22,3.05-2.32.6-2.76-2.63-1.22-3.05Z"/><path class="cls-19" d="M143.29,29.3c.03.89-.01,2.08-.2,2.95-.65,2.93-15.29,24.93-17.89,30.08,5.37-3,9.77-9.02,16.46-8.64h.2c-11.19,10-23.42,23.58-34.75,33.94,5.55-7.62,11.59-20.64,16.67-29.37,3.24-5.58,6.83-10.95,10.16-16.46.89-1.47.75-2.04.81-2.13.14-.24,1.76-1.88,3.25-4.47,3.65-6.36,1.81-8.13,2.24-11.99,0-.03.1.21.2-.61,1.62.9,2.78,4.83,2.85,6.71Z"/><path class="cls-5" d="M134.75,39.67c-.06.1.08.66-.81,2.13-3.33,5.51-6.92,10.89-10.16,16.46-5.07,8.72-11.11,21.75-16.67,29.37-3.7,5.07-8.63,9.15-13.01,13.62-.64-.27-4.13-1.56-4.27-1.93v-13.21c3.54-4.39,6.65-9.09,9.45-13.92,7.26-.08,10.16-5.56,9.86-12.3,4.97-9.09,10.06-18.08,15.45-26.93,2.37,3.42,6.13,5.74,10.16,6.71Z"/><path class="cls-16" d="M140.24,23.21c-.43,3.86,1.42,5.63-2.24,11.99-4.23-1.31-7.68-4.08-10.98-6.91,3.37-5.01,6.43-4.76,9.55-6.71l3.66,1.63Z"/><path class="cls-10" d="M138,35.2c-1.49,2.59-3.11,4.23-3.25,4.47-4.03-.97-7.79-3.28-10.16-6.71.13-.22.46-.93,1.02-1.83,4.85,2.99,5.4,1.77.41-.81.46-.72.95-1.94,1.02-2.03,3.29,2.83,6.74,5.6,10.98,6.91Z"/><path class="cls-17" d="M125.6,31.13s0-.17.41-.81c4.99,2.59,4.45,3.8-.41.81Z"/><path class="cls-17" d="M132.21,36.21c.25-.03,4.54,2.06,2.03,1.63-.19-.03-3.14-1.5-2.03-1.63Z"/><path class="cls-12" d="M133.63,34.99c3.99,1.38,4.32,2.86,0,.41v-.41Z"/><path class="cls-10" d="M1.02,39.06c.84.89,2.29,2.39,3.25,3.05.23.16.19.2.2.2-.5.62-1.26.89-1.83,1.42-.04.03-.17-.03-.2,0l-2.44-4.98c.49-.37.67.2,1.02.3Z"/><path class="cls-19" d="M2.64,43.73c1.26,4.9,1.88,8.49,4.67,12.8,5.09,7.88,22.93,27.93,29.47,37.8-1.99-2.04-3.96-4.01-6.1-5.89-1.39-1.23-2.77-2.56-4.27-3.66-.05-.04-.1-.24-1.02-.81-3.26-2.05-7.11-2.66-10.57-4.27-.04-.02-.18-.4-.61-.61l6.1-.71c-3.34-4.61-17.63-21.33-18.9-25.1-.89-2.65-1.1-7.46,1.02-9.55.03-.03.17.03.2,0Z"/><path class="cls-6" d="M44.51,103.49c-1.93-3.45-4.98-6.33-7.72-9.15-6.54-9.88-24.38-29.92-29.47-37.8l7.93-8.13c4.71,4.39,29.26,37.77,36.58,45.63l.2,6.5c-.15.38-6.57,2.55-7.52,2.95Z"/><path class="cls-16" d="M15.24,48.41l-7.93,8.13c-2.79-4.32-3.41-7.9-4.67-12.8.57-.53,1.33-.8,1.83-1.42,2.8,1.82,7.08,2.67,10.77,6.1Z"/><path class="cls-13" d="M14.23,79.1c.43.21.57.59.61.61l-2.03,1.22c-.2-.32-2.32-2-2.64-2.44-.06-.08-.48-1.13-1.02-1.73l.3-.3c1.57.91,3.15,1.84,4.78,2.64Z"/><path class="cls-18" d="M36.79,94.34c2.74,2.81,5.79,5.69,7.72,9.15-1.44.6-2.97,1.04-4.37,1.63-.25.11-2.3,1.57-2.44,1.63-.23.1-2.61.62-4.47,1.83-3.66-3.57-7.19-7.23-10.67-10.98l8.13-9.15c2.13,1.89,4.11,3.85,6.1,5.89Z"/><path class="cls-16" d="M25.41,83.98l-7.32,7.93c-.2.15-.19.2-.2.2-.11.07-.27.17-.41.2-3.08-4.13-3.17-9.06-4.67-11.38l2.03-1.22c3.45,1.61,7.31,2.22,10.57,4.27Z"/><path class="cls-14" d="M30.69,88.45l-8.13,9.15c-1.66-1.78-3.63-3.33-5.08-5.28.13-.03.3-.13.41-.2l4.37,3.66,3.56-3.35c-.26-.2-.42-.45-.61-.71l.41-.41c1.64,1.17,2.09-.56,2.03-.91-.04-.23-2.85-2.89-3.25-3.35.64-.79,1.33-1.5,2.03-2.24,1.5,1.1,2.88,2.43,4.27,3.66Z"/><path class="cls-7" d="M26.42,84.79c-.7.73-1.39,1.45-2.03,2.24-.38.46-1.26.72-1.22,1.52.02.18,2.2,2.58,2.44,2.74l-.41.41c-.23-.31-2.94-2.87-3.15-2.85-.16.02-2.13,2.14-2.13,2.34,0,.28,5.01,5.46,1.52,2.74-.97-.76-1.69-3.27-3.35-2.03l7.32-7.93c.92.58.96.77,1.02.81Z"/><path class="cls-15" d="M25.2,91.7c.19.26.35.51.61.71l-3.56,3.35-4.37-3.66s0-.05.2-.2c1.66-1.24,2.38,1.28,3.35,2.03,3.48,2.72-1.52-2.46-1.52-2.74,0-.19,1.98-2.32,2.13-2.34.21-.02,2.92,2.53,3.15,2.85Z"/><path class="cls-15" d="M25.61,91.29c-.24-.17-2.42-2.56-2.44-2.74-.04-.8.84-1.06,1.22-1.52.4.47,3.21,3.12,3.25,3.35.06.36-.39,2.09-2.03.91Z"/></g></svg>